<?xml version="1.0" encoding="UTF-8" standalone="no"?>
<!DOCTYPE svg PUBLIC "-//W3C//DTD SVG 1.1//EN"
 "http://www.w3.org/Graphics/SVG/1.1/DTD/svg11.dtd">
<!-- Generated by graphviz version 2.38.0 (20140413.2041)
 -->
<!-- Title: controllers_diagram Pages: 1 -->
<svg width="681pt" height="644pt"
 viewBox="0.00 0.00 681.00 644.00" xmlns="http://www.w3.org/2000/svg" xmlns:xlink="http://www.w3.org/1999/xlink">
<g id="graph0" class="graph" transform="scale(1 1) rotate(0) translate(259 368.5)">
<title>controllers_diagram</title>
<polygon fill="none" stroke="none" points="-259,275.5 -259,-368.5 422,-368.5 422,275.5 -259,275.5"/>
<!-- _diagram_info -->
<g id="node1" class="node"><title>_diagram_info</title>
<text text-anchor="start" x="212" y="157.4" font-family="Times,serif" font-size="13.00">Controllers diagram</text>
<text text-anchor="start" x="212" y="171.4" font-family="Times,serif" font-size="13.00">Date: Feb 02 2016 &#45; 23:04</text>
<text text-anchor="start" x="212" y="185.4" font-family="Times,serif" font-size="13.00">Migration version: 20160202131929</text>
<text text-anchor="start" x="212" y="199.4" font-family="Times,serif" font-size="13.00">Generated by RailRoady 1.4.2</text>
<text text-anchor="start" x="212" y="213.4" font-family="Times,serif" font-size="13.00">http://railroady.prestonlee.com</text>
</g>
<!-- ApplicationController -->
<g id="node2" class="node"><title>ApplicationController</title>
<path fill="none" stroke="black" d="M-209,221C-209,221 -39,221 -39,221 -33,221 -27,215 -27,209 -27,209 -27,141 -27,141 -27,135 -33,129 -39,129 -39,129 -209,129 -209,129 -215,129 -221,135 -221,141 -221,141 -221,209 -221,209 -221,215 -215,221 -209,221"/>
<text text-anchor="middle" x="-124" y="144.2" font-family="Times,serif" font-size="14.00">ApplicationController</text>
<polyline fill="none" stroke="black" points="-221,152 -27,152 "/>
<text text-anchor="start" x="-213" y="167.2" font-family="Times,serif" font-size="14.00">policy_namespace</text>
<polyline fill="none" stroke="black" points="-221,175 -27,175 "/>
<text text-anchor="start" x="-213" y="190.2" font-family="Times,serif" font-size="14.00">configure_permitted_parameters</text>
<polyline fill="none" stroke="black" points="-221,198 -27,198 "/>
<text text-anchor="start" x="-213" y="213.2" font-family="Times,serif" font-size="14.00">user_not_authorized</text>
</g>
<!-- CategoriesController -->
<g id="node3" class="node"><title>CategoriesController</title>
<path fill="none" stroke="black" d="M-243,-256C-243,-256 -137,-256 -137,-256 -131,-256 -125,-262 -125,-268 -125,-268 -125,-352 -125,-352 -125,-358 -131,-364 -137,-364 -137,-364 -243,-364 -243,-364 -249,-364 -255,-358 -255,-352 -255,-352 -255,-268 -255,-268 -255,-262 -249,-256 -243,-256"/>
<text text-anchor="middle" x="-190" y="-348.8" font-family="Times,serif" font-size="14.00">CategoriesController</text>
<polyline fill="none" stroke="black" points="-255,-341 -125,-341 "/>
<text text-anchor="start" x="-247" y="-325.8" font-family="Times,serif" font-size="14.00">index</text>
<polyline fill="none" stroke="black" points="-255,-318 -125,-318 "/>
<polyline fill="none" stroke="black" points="-255,-294 -125,-294 "/>
<text text-anchor="start" x="-247" y="-278.8" font-family="Times,serif" font-size="14.00">category_params</text>
<text text-anchor="start" x="-247" y="-263.8" font-family="Times,serif" font-size="14.00">set_category</text>
</g>
<!-- ProductsController -->
<g id="node4" class="node"><title>ProductsController</title>
<path fill="none" stroke="black" d="M301.5,101.5C301.5,101.5 396.5,101.5 396.5,101.5 402.5,101.5 408.5,95.5 408.5,89.5 408.5,89.5 408.5,4.5 408.5,4.5 408.5,-1.5 402.5,-7.5 396.5,-7.5 396.5,-7.5 301.5,-7.5 301.5,-7.5 295.5,-7.5 289.5,-1.5 289.5,4.5 289.5,4.5 289.5,89.5 289.5,89.5 289.5,95.5 295.5,101.5 301.5,101.5"/>
<text text-anchor="middle" x="349" y="7.7" font-family="Times,serif" font-size="14.00">ProductsController</text>
<polyline fill="none" stroke="black" points="289.5,15.5 408.5,15.5 "/>
<text text-anchor="start" x="297.5" y="30.7" font-family="Times,serif" font-size="14.00">index</text>
<text text-anchor="start" x="297.5" y="45.7" font-family="Times,serif" font-size="14.00">show</text>
<polyline fill="none" stroke="black" points="289.5,53.5 408.5,53.5 "/>
<polyline fill="none" stroke="black" points="289.5,77.5 408.5,77.5 "/>
</g>
<!-- Client::OrdersController -->
<g id="node5" class="node"><title>Client::OrdersController</title>
<path fill="none" stroke="black" d="M-73.5,-119.5C-73.5,-119.5 51.5,-119.5 51.5,-119.5 57.5,-119.5 63.5,-125.5 63.5,-131.5 63.5,-131.5 63.5,-290.5 63.5,-290.5 63.5,-296.5 57.5,-302.5 51.5,-302.5 51.5,-302.5 -73.5,-302.5 -73.5,-302.5 -79.5,-302.5 -85.5,-296.5 -85.5,-290.5 -85.5,-290.5 -85.5,-131.5 -85.5,-131.5 -85.5,-125.5 -79.5,-119.5 -73.5,-119.5"/>
<text text-anchor="middle" x="-11" y="-287.3" font-family="Times,serif" font-size="14.00">Client::OrdersController</text>
<polyline fill="none" stroke="black" points="-85.5,-279.5 63.5,-279.5 "/>
<text text-anchor="start" x="-77.5" y="-264.3" font-family="Times,serif" font-size="14.00">create</text>
<text text-anchor="start" x="-77.5" y="-249.3" font-family="Times,serif" font-size="14.00">destroy</text>
<text text-anchor="start" x="-77.5" y="-234.3" font-family="Times,serif" font-size="14.00">index</text>
<text text-anchor="start" x="-77.5" y="-219.3" font-family="Times,serif" font-size="14.00">show</text>
<text text-anchor="start" x="-77.5" y="-204.3" font-family="Times,serif" font-size="14.00">update</text>
<text text-anchor="start" x="-77.5" y="-189.3" font-family="Times,serif" font-size="14.00">update_status</text>
<polyline fill="none" stroke="black" points="-85.5,-181.5 63.5,-181.5 "/>
<polyline fill="none" stroke="black" points="-85.5,-157.5 63.5,-157.5 "/>
<text text-anchor="start" x="-77.5" y="-142.3" font-family="Times,serif" font-size="14.00">order_params</text>
<text text-anchor="start" x="-77.5" y="-127.3" font-family="Times,serif" font-size="14.00">set_order</text>
</g>
<!-- Client::UsersController -->
<g id="node6" class="node"><title>Client::UsersController</title>
<path fill="none" stroke="black" d="M-242.5,-120C-242.5,-120 -123.5,-120 -123.5,-120 -117.5,-120 -111.5,-126 -111.5,-132 -111.5,-132 -111.5,-202 -111.5,-202 -111.5,-208 -117.5,-214 -123.5,-214 -123.5,-214 -242.5,-214 -242.5,-214 -248.5,-214 -254.5,-208 -254.5,-202 -254.5,-202 -254.5,-132 -254.5,-132 -254.5,-126 -248.5,-120 -242.5,-120"/>
<text text-anchor="middle" x="-183" y="-198.8" font-family="Times,serif" font-size="14.00">Client::UsersController</text>
<polyline fill="none" stroke="black" points="-254.5,-191 -111.5,-191 "/>
<text text-anchor="start" x="-246.5" y="-175.8" font-family="Times,serif" font-size="14.00">show</text>
<polyline fill="none" stroke="black" points="-254.5,-168 -111.5,-168 "/>
<polyline fill="none" stroke="black" points="-254.5,-144 -111.5,-144 "/>
</g>
<!-- Client::BaseController -->
<g id="node7" class="node"><title>Client::BaseController</title>
<path fill="none" stroke="black" d="M-242.5,16.5C-242.5,16.5 -127.5,16.5 -127.5,16.5 -121.5,16.5 -115.5,10.5 -115.5,4.5 -115.5,4.5 -115.5,-66.5 -115.5,-66.5 -115.5,-72.5 -121.5,-78.5 -127.5,-78.5 -127.5,-78.5 -242.5,-78.5 -242.5,-78.5 -248.5,-78.5 -254.5,-72.5 -254.5,-66.5 -254.5,-66.5 -254.5,4.5 -254.5,4.5 -254.5,10.5 -248.5,16.5 -242.5,16.5"/>
<text text-anchor="middle" x="-185" y="-63.3" font-family="Times,serif" font-size="14.00">Client::BaseController</text>
<polyline fill="none" stroke="black" points="-254.5,-55.5 -115.5,-55.5 "/>
<polyline fill="none" stroke="black" points="-254.5,-31.5 -115.5,-31.5 "/>
<polyline fill="none" stroke="black" points="-254.5,-7.5 -115.5,-7.5 "/>
</g>
<!-- Admin::OrdersController -->
<g id="node8" class="node"><title>Admin::OrdersController</title>
<path fill="none" stroke="black" d="M-72.5,101.5C-72.5,101.5 58.5,101.5 58.5,101.5 64.5,101.5 70.5,95.5 70.5,89.5 70.5,89.5 70.5,-69.5 70.5,-69.5 70.5,-75.5 64.5,-81.5 58.5,-81.5 58.5,-81.5 -72.5,-81.5 -72.5,-81.5 -78.5,-81.5 -84.5,-75.5 -84.5,-69.5 -84.5,-69.5 -84.5,89.5 -84.5,89.5 -84.5,95.5 -78.5,101.5 -72.5,101.5"/>
<text text-anchor="middle" x="-7" y="-66.3" font-family="Times,serif" font-size="14.00">Admin::OrdersController</text>
<polyline fill="none" stroke="black" points="-84.5,-58.5 70.5,-58.5 "/>
<text text-anchor="start" x="-76.5" y="-43.3" font-family="Times,serif" font-size="14.00">create</text>
<text text-anchor="start" x="-76.5" y="-28.3" font-family="Times,serif" font-size="14.00">destroy</text>
<text text-anchor="start" x="-76.5" y="-13.3" font-family="Times,serif" font-size="14.00">index</text>
<text text-anchor="start" x="-76.5" y="1.7" font-family="Times,serif" font-size="14.00">show</text>
<text text-anchor="start" x="-76.5" y="16.7" font-family="Times,serif" font-size="14.00">update</text>
<text text-anchor="start" x="-76.5" y="31.7" font-family="Times,serif" font-size="14.00">update_status</text>
<polyline fill="none" stroke="black" points="-84.5,39.5 70.5,39.5 "/>
<polyline fill="none" stroke="black" points="-84.5,63.5 70.5,63.5 "/>
<text text-anchor="start" x="-76.5" y="78.7" font-family="Times,serif" font-size="14.00">order_params</text>
<text text-anchor="start" x="-76.5" y="93.7" font-family="Times,serif" font-size="14.00">set_order</text>
</g>
<!-- Admin::CategoriesController -->
<g id="node9" class="node"><title>Admin::CategoriesController</title>
<path fill="none" stroke="black" d="M148,-137C148,-137 300,-137 300,-137 306,-137 312,-143 312,-149 312,-149 312,-263 312,-263 312,-269 306,-275 300,-275 300,-275 148,-275 148,-275 142,-275 136,-269 136,-263 136,-263 136,-149 136,-149 136,-143 142,-137 148,-137"/>
<text text-anchor="middle" x="224" y="-259.8" font-family="Times,serif" font-size="14.00">Admin::CategoriesController</text>
<polyline fill="none" stroke="black" points="136,-252 312,-252 "/>
<text text-anchor="start" x="144" y="-236.8" font-family="Times,serif" font-size="14.00">create</text>
<text text-anchor="start" x="144" y="-221.8" font-family="Times,serif" font-size="14.00">destroy</text>
<text text-anchor="start" x="144" y="-206.8" font-family="Times,serif" font-size="14.00">update</text>
<polyline fill="none" stroke="black" points="136,-199 312,-199 "/>
<polyline fill="none" stroke="black" points="136,-175 312,-175 "/>
<text text-anchor="start" x="144" y="-159.8" font-family="Times,serif" font-size="14.00">category_params</text>
<text text-anchor="start" x="144" y="-144.8" font-family="Times,serif" font-size="14.00">set_category</text>
</g>
<!-- Admin::UsersController -->
<g id="node10" class="node"><title>Admin::UsersController</title>
<path fill="none" stroke="black" d="M113.5,101C113.5,101 238.5,101 238.5,101 244.5,101 250.5,95 250.5,89 250.5,89 250.5,-85 250.5,-85 250.5,-91 244.5,-97 238.5,-97 238.5,-97 113.5,-97 113.5,-97 107.5,-97 101.5,-91 101.5,-85 101.5,-85 101.5,89 101.5,89 101.5,95 107.5,101 113.5,101"/>
<text text-anchor="middle" x="176" y="-81.8" font-family="Times,serif" font-size="14.00">Admin::UsersController</text>
<polyline fill="none" stroke="black" points="101.5,-74 250.5,-74 "/>
<text text-anchor="start" x="109.5" y="-58.8" font-family="Times,serif" font-size="14.00">create</text>
<text text-anchor="start" x="109.5" y="-43.8" font-family="Times,serif" font-size="14.00">destroy</text>
<text text-anchor="start" x="109.5" y="-28.8" font-family="Times,serif" font-size="14.00">index</text>
<text text-anchor="start" x="109.5" y="-13.8" font-family="Times,serif" font-size="14.00">list_abilities</text>
<text text-anchor="start" x="109.5" y="1.2" font-family="Times,serif" font-size="14.00">show</text>
<text text-anchor="start" x="109.5" y="16.2" font-family="Times,serif" font-size="14.00">update</text>
<text text-anchor="start" x="109.5" y="31.2" font-family="Times,serif" font-size="14.00">update_abilities</text>
<polyline fill="none" stroke="black" points="101.5,39 250.5,39 "/>
<polyline fill="none" stroke="black" points="101.5,63 250.5,63 "/>
<text text-anchor="start" x="109.5" y="78.2" font-family="Times,serif" font-size="14.00">set_user</text>
<text text-anchor="start" x="109.5" y="93.2" font-family="Times,serif" font-size="14.00">user_params</text>
</g>
<!-- Admin::ProductsController -->
<g id="node11" class="node"><title>Admin::ProductsController</title>
<path fill="none" stroke="black" d="M12.5,271C12.5,271 153.5,271 153.5,271 159.5,271 165.5,265 165.5,259 165.5,259 165.5,145 165.5,145 165.5,139 159.5,133 153.5,133 153.5,133 12.5,133 12.5,133 6.5,133 0.5,139 0.5,145 0.5,145 0.5,259 0.5,259 0.5,265 6.5,271 12.5,271"/>
<text text-anchor="middle" x="83" y="148.2" font-family="Times,serif" font-size="14.00">Admin::ProductsController</text>
<polyline fill="none" stroke="black" points="0.5,156 165.5,156 "/>
<text text-anchor="start" x="8.5" y="171.2" font-family="Times,serif" font-size="14.00">create</text>
<text text-anchor="start" x="8.5" y="186.2" font-family="Times,serif" font-size="14.00">destroy</text>
<text text-anchor="start" x="8.5" y="201.2" font-family="Times,serif" font-size="14.00">update</text>
<polyline fill="none" stroke="black" points="0.5,209 165.5,209 "/>
<polyline fill="none" stroke="black" points="0.5,233 165.5,233 "/>
<text text-anchor="start" x="8.5" y="248.2" font-family="Times,serif" font-size="14.00">product_params</text>
<text text-anchor="start" x="8.5" y="263.2" font-family="Times,serif" font-size="14.00">set_product</text>
</g>
</g>
</svg>
