<?xml version="1.0" encoding="UTF-8" standalone="no"?>
<!DOCTYPE svg PUBLIC "-//W3C//DTD SVG 1.1//EN"
 "http://www.w3.org/Graphics/SVG/1.1/DTD/svg11.dtd">
<!-- Generated by graphviz version 2.38.0 (20140413.2041)
 -->
<!-- Title: models_diagram Pages: 1 -->
<svg width="754pt" height="319pt"
 viewBox="0.00 0.00 754.38 319.00" xmlns="http://www.w3.org/2000/svg" xmlns:xlink="http://www.w3.org/1999/xlink">
<g id="graph0" class="graph" transform="scale(1 1) rotate(0) translate(4 315)">
<title>models_diagram</title>
<polygon fill="none" stroke="none" points="-4,4 -4,-315 750.383,-315 750.383,4 -4,4"/>
<!-- _diagram_info -->
<g id="node1" class="node"><title>_diagram_info</title>
<text text-anchor="start" x="334.791" y="-296.6" font-family="Times,serif" font-size="13.00">Models diagram</text>
<text text-anchor="start" x="334.791" y="-282.6" font-family="Times,serif" font-size="13.00">Date: Feb 02 2016 &#45; 23:04</text>
<text text-anchor="start" x="334.791" y="-268.6" font-family="Times,serif" font-size="13.00">Migration version: 20160202131929</text>
<text text-anchor="start" x="334.791" y="-254.6" font-family="Times,serif" font-size="13.00">Generated by RailRoady 1.4.2</text>
<text text-anchor="start" x="334.791" y="-240.6" font-family="Times,serif" font-size="13.00">http://railroady.prestonlee.com</text>
</g>
<!-- Order -->
<g id="node2" class="node"><title>Order</title>
<ellipse fill="none" stroke="black" cx="493.791" cy="-91" rx="31.3957" ry="18"/>
<text text-anchor="middle" x="493.791" y="-87.3" font-family="Times,serif" font-size="14.00">Order</text>
</g>
<!-- LineItem -->
<g id="node8" class="node"><title>LineItem</title>
<ellipse fill="none" stroke="black" cx="493.791" cy="-18" rx="43.5923" ry="18"/>
<text text-anchor="middle" x="493.791" y="-14.3" font-family="Times,serif" font-size="14.00">LineItem</text>
</g>
<!-- Order&#45;&gt;LineItem -->
<g id="edge1" class="edge"><title>Order&#45;&gt;LineItem</title>
<path fill="none" stroke="#3806cd" d="M493.791,-64.791C493.791,-58.832 493.791,-52.4496 493.791,-46.3988"/>
<ellipse fill="none" stroke="#3806cd" cx="493.791" cy="-68.8129" rx="4" ry="4"/>
<polygon fill="#3806cd" stroke="#3806cd" points="493.791,-46.0288 498.291,-36.0288 493.791,-41.0288 493.791,-36.0288 493.791,-36.0288 493.791,-36.0288 493.791,-41.0288 489.291,-36.0289 493.791,-46.0288 493.791,-46.0288"/>
</g>
<!-- CategoriesProductsJoin -->
<g id="node3" class="node"><title>CategoriesProductsJoin</title>
<ellipse fill="none" stroke="black" cx="652.791" cy="-18" rx="93.6835" ry="18"/>
<text text-anchor="middle" x="652.791" y="-14.3" font-family="Times,serif" font-size="14.00">CategoriesProductsJoin</text>
</g>
<!-- User -->
<g id="node4" class="node"><title>User</title>
<ellipse fill="none" stroke="black" cx="260.791" cy="-178" rx="27.0966" ry="18"/>
<text text-anchor="middle" x="260.791" y="-174.3" font-family="Times,serif" font-size="14.00">User</text>
</g>
<!-- User&#45;&gt;Order -->
<g id="edge2" class="edge"><title>User&#45;&gt;Order</title>
<path fill="none" stroke="#ea34b9" d="M295.394,-171.838C325.972,-166.575 371.392,-157.023 408.791,-142 429.032,-133.869 450.179,-121.447 466.317,-111.019"/>
<ellipse fill="none" stroke="#ea34b9" cx="291.127" cy="-172.551" rx="4.00001" ry="4.00001"/>
<polygon fill="#ea34b9" stroke="#ea34b9" points="466.382,-110.977 477.208,-109.227 470.556,-108.224 474.73,-105.471 474.73,-105.471 474.73,-105.471 470.556,-108.224 472.252,-101.714 466.382,-110.977 466.382,-110.977"/>
</g>
<!-- ActsAsTaggableOn::Tagging -->
<g id="node9" class="node"><title>ActsAsTaggableOn::Tagging</title>
<ellipse fill="none" stroke="black" cx="329.791" cy="-91" rx="114.28" ry="18"/>
<text text-anchor="middle" x="329.791" y="-87.3" font-family="Times,serif" font-size="14.00">ActsAsTaggableOn::Tagging</text>
</g>
<!-- User&#45;&gt;ActsAsTaggableOn::Tagging -->
<g id="edge3" class="edge"><title>User&#45;&gt;ActsAsTaggableOn::Tagging</title>
<path fill="none" stroke="#4454da" d="M256.325,-151.878C256.062,-143.423 257.242,-134.293 261.791,-127 265.158,-121.603 269.646,-117 274.717,-113.084"/>
<ellipse fill="none" stroke="#4454da" cx="256.669" cy="-156.029" rx="4" ry="4"/>
<polygon fill="#4454da" stroke="#4454da" points="274.78,-113.041 285.594,-111.217 278.935,-110.26 283.09,-107.478 283.09,-107.478 283.09,-107.478 278.935,-110.26 280.586,-103.739 274.78,-113.041 274.78,-113.041"/>
<text text-anchor="middle" x="284.791" y="-130.8" font-family="Times,serif" font-size="14.00">taggings</text>
</g>
<!-- User&#45;&gt;ActsAsTaggableOn::Tagging -->
<g id="edge5" class="edge"><title>User&#45;&gt;ActsAsTaggableOn::Tagging</title>
<path fill="none" stroke="#428884" d="M287.986,-160.431C295.082,-155.183 302.277,-148.923 307.791,-142 313.252,-135.144 317.637,-126.721 321.012,-118.757"/>
<ellipse fill="none" stroke="#428884" cx="284.266" cy="-163.035" rx="4.00002" ry="4.00002"/>
<polygon fill="#428884" stroke="#428884" points="321.022,-118.732 328.828,-111.03 322.827,-114.069 324.631,-109.406 324.631,-109.406 324.631,-109.406 322.827,-114.069 320.435,-107.781 321.022,-118.732 321.022,-118.732"/>
<text text-anchor="middle" x="360.791" y="-130.8" font-family="Times,serif" font-size="14.00">ability_taggings</text>
</g>
<!-- ActsAsTaggableOn::Tag -->
<g id="node10" class="node"><title>ActsAsTaggableOn::Tag</title>
<ellipse fill="none" stroke="black" cx="98.7912" cy="-91" rx="98.5829" ry="18"/>
<text text-anchor="middle" x="98.7912" y="-87.3" font-family="Times,serif" font-size="14.00">ActsAsTaggableOn::Tag</text>
</g>
<!-- User&#45;&gt;ActsAsTaggableOn::Tag -->
<g id="edge4" class="edge"><title>User&#45;&gt;ActsAsTaggableOn::Tag</title>
<path fill="none" stroke="#70eddc" d="M223.897,-172.329C186.019,-166.824 130.464,-156.547 114.791,-142 108.333,-136.005 104.47,-127.406 102.164,-119.025"/>
<polygon fill="#70eddc" stroke="#70eddc" points="224.161,-172.366 233.439,-178.212 229.112,-173.061 234.064,-173.755 234.064,-173.755 234.064,-173.755 229.112,-173.061 234.689,-169.299 224.161,-172.366 224.161,-172.366"/>
<polygon fill="#70eddc" stroke="#70eddc" points="102.134,-118.882 104.455,-108.165 101.094,-113.991 100.054,-109.101 100.054,-109.101 100.054,-109.101 101.094,-113.991 95.6522,-110.037 102.134,-118.882 102.134,-118.882"/>
<text text-anchor="middle" x="141.291" y="-130.8" font-family="Times,serif" font-size="14.00">base_tags</text>
</g>
<!-- User&#45;&gt;ActsAsTaggableOn::Tag -->
<g id="edge6" class="edge"><title>User&#45;&gt;ActsAsTaggableOn::Tag</title>
<path fill="none" stroke="#63712d" d="M231.209,-160.863C212.981,-150.978 189.099,-138.13 167.791,-127 158.773,-122.289 149.05,-117.302 139.829,-112.614"/>
<polygon fill="#63712d" stroke="#63712d" points="231.394,-160.964 238.033,-169.691 235.788,-163.35 240.181,-165.737 240.181,-165.737 240.181,-165.737 235.788,-163.35 242.33,-161.783 231.394,-160.964 231.394,-160.964"/>
<polygon fill="#63712d" stroke="#63712d" points="139.74,-112.569 132.855,-104.033 135.28,-110.308 130.821,-108.047 130.821,-108.047 130.821,-108.047 135.28,-110.308 128.786,-112.061 139.74,-112.569 139.74,-112.569"/>
<text text-anchor="middle" x="218.291" y="-130.8" font-family="Times,serif" font-size="14.00">abilities</text>
</g>
<!-- Product -->
<g id="node5" class="node"><title>Product</title>
<ellipse fill="none" stroke="black" cx="585.791" cy="-178" rx="38.1938" ry="18"/>
<text text-anchor="middle" x="585.791" y="-174.3" font-family="Times,serif" font-size="14.00">Product</text>
</g>
<!-- Product&#45;&gt;Order -->
<g id="edge9" class="edge"><title>Product&#45;&gt;Order</title>
<path fill="none" stroke="#15b117" d="M561.304,-154.376C547.612,-141.725 530.637,-126.042 517.134,-113.567"/>
<polygon fill="#15b117" stroke="#15b117" points="561.572,-154.624 565.863,-164.715 565.245,-158.017 568.917,-161.41 568.917,-161.41 568.917,-161.41 565.245,-158.017 571.971,-158.104 561.572,-154.624 561.572,-154.624"/>
<polygon fill="#15b117" stroke="#15b117" points="516.981,-113.425 512.69,-103.334 513.309,-110.032 509.636,-106.639 509.636,-106.639 509.636,-106.639 513.309,-110.032 506.582,-109.944 516.981,-113.425 516.981,-113.425"/>
</g>
<!-- Product&#45;&gt;CategoriesProductsJoin -->
<g id="edge7" class="edge"><title>Product&#45;&gt;CategoriesProductsJoin</title>
<path fill="none" stroke="#d02a19" d="M606.854,-155.249C617.796,-142.705 630.393,-126.069 637.791,-109 646.428,-89.0748 650.116,-64.6798 651.679,-46.3166"/>
<ellipse fill="none" stroke="#d02a19" cx="603.991" cy="-158.439" rx="4.00002" ry="4.00002"/>
<polygon fill="#d02a19" stroke="#d02a19" points="651.683,-46.257 656.864,-36.5924 652.029,-41.269 652.375,-36.281 652.375,-36.281 652.375,-36.281 652.029,-41.269 647.886,-35.9696 651.683,-46.257 651.683,-46.257"/>
</g>
<!-- Category -->
<g id="node7" class="node"><title>Category</title>
<ellipse fill="none" stroke="black" cx="585.791" cy="-91" rx="42.7926" ry="18"/>
<text text-anchor="middle" x="585.791" y="-87.3" font-family="Times,serif" font-size="14.00">Category</text>
</g>
<!-- Product&#45;&gt;Category -->
<g id="edge8" class="edge"><title>Product&#45;&gt;Category</title>
<path fill="none" stroke="#86aff4" d="M585.791,-149.734C585.791,-140.06 585.791,-129.173 585.791,-119.481"/>
<polygon fill="#86aff4" stroke="#86aff4" points="585.791,-149.799 581.291,-159.799 585.791,-154.799 585.791,-159.799 585.791,-159.799 585.791,-159.799 585.791,-154.799 590.291,-159.799 585.791,-149.799 585.791,-149.799"/>
<polygon fill="#86aff4" stroke="#86aff4" points="585.791,-119.175 590.291,-109.175 585.791,-114.175 585.791,-109.175 585.791,-109.175 585.791,-109.175 585.791,-114.175 581.291,-109.175 585.791,-119.175 585.791,-119.175"/>
</g>
<!-- City -->
<g id="node6" class="node"><title>City</title>
<ellipse fill="none" stroke="black" cx="585.791" cy="-272" rx="27" ry="18"/>
<text text-anchor="middle" x="585.791" y="-268.3" font-family="Times,serif" font-size="14.00">City</text>
</g>
<!-- City&#45;&gt;Product -->
<g id="edge10" class="edge"><title>City&#45;&gt;Product</title>
<path fill="none" stroke="#14da2e" d="M585.791,-245.451C585.791,-233.315 585.791,-218.795 585.791,-206.427"/>
<ellipse fill="none" stroke="#14da2e" cx="585.791" cy="-249.696" rx="4" ry="4"/>
<polygon fill="#14da2e" stroke="#14da2e" points="585.791,-206.227 590.291,-196.227 585.791,-201.227 585.791,-196.227 585.791,-196.227 585.791,-196.227 585.791,-201.227 581.291,-196.227 585.791,-206.227 585.791,-206.227"/>
</g>
<!-- Category&#45;&gt;CategoriesProductsJoin -->
<g id="edge11" class="edge"><title>Category&#45;&gt;CategoriesProductsJoin</title>
<path fill="none" stroke="#7045a4" d="M606.496,-68.0587C613.793,-60.3263 622.043,-51.584 629.536,-43.6434"/>
<ellipse fill="none" stroke="#7045a4" cx="603.74" cy="-70.9798" rx="4.00002" ry="4.00002"/>
<polygon fill="#7045a4" stroke="#7045a4" points="629.851,-43.3103 639.987,-39.1258 633.282,-39.6738 636.714,-36.0373 636.714,-36.0373 636.714,-36.0373 633.282,-39.6738 633.441,-32.9488 629.851,-43.3103 629.851,-43.3103"/>
</g>
</g>
</svg>
