<?xml version="1.0" encoding="UTF-8" standalone="no"?>
<!DOCTYPE svg PUBLIC "-//W3C//DTD SVG 1.1//EN"
 "http://www.w3.org/Graphics/SVG/1.1/DTD/svg11.dtd">
<!-- Generated by graphviz version 2.38.0 (20140413.2041)
 -->
<!-- Title: models_diagram Pages: 1 -->
<svg width="305pt" height="230pt"
 viewBox="0.00 0.00 305.35 230.00" xmlns="http://www.w3.org/2000/svg" xmlns:xlink="http://www.w3.org/1999/xlink">
<g id="graph0" class="graph" transform="scale(1 1) rotate(0) translate(4 226)">
<title>models_diagram</title>
<polygon fill="none" stroke="none" points="-4,4 -4,-226 301.347,-226 301.347,4 -4,4"/>
<!-- _diagram_info -->
<g id="node1" class="node"><title>_diagram_info</title>
<text text-anchor="start" x="8" y="-207.6" font-family="Times,serif" font-size="13.00">Models diagram</text>
<text text-anchor="start" x="8" y="-193.6" font-family="Times,serif" font-size="13.00">Date: Jan 24 2016 &#45; 21:01</text>
<text text-anchor="start" x="8" y="-179.6" font-family="Times,serif" font-size="13.00">Migration version: 20160124155732</text>
<text text-anchor="start" x="8" y="-165.6" font-family="Times,serif" font-size="13.00">Generated by RailRoady 1.4.2</text>
<text text-anchor="start" x="8" y="-151.6" font-family="Times,serif" font-size="13.00">http://railroady.prestonlee.com</text>
</g>
<!-- Order -->
<g id="node2" class="node"><title>Order</title>
<ellipse fill="none" stroke="black" cx="259" cy="-90" rx="31.3957" ry="18"/>
<text text-anchor="middle" x="259" y="-86.3" font-family="Times,serif" font-size="14.00">Order</text>
</g>
<!-- Product -->
<g id="node4" class="node"><title>Product</title>
<ellipse fill="none" stroke="black" cx="259" cy="-18" rx="38.1938" ry="18"/>
<text text-anchor="middle" x="259" y="-14.3" font-family="Times,serif" font-size="14.00">Product</text>
</g>
<!-- Order&#45;&gt;Product -->
<g id="edge1" class="edge"><title>Order&#45;&gt;Product</title>
<path fill="none" stroke="#ac2919" d="M259,-61.6651C259,-56.6867 259,-51.4906 259,-46.5072"/>
<polygon fill="#ac2919" stroke="#ac2919" points="259,-61.6966 254.5,-71.6966 259,-66.6966 259,-71.6966 259,-71.6966 259,-71.6966 259,-66.6966 263.5,-71.6967 259,-61.6966 259,-61.6966"/>
<polygon fill="#ac2919" stroke="#ac2919" points="259,-46.1043 263.5,-36.1043 259,-41.1043 259,-36.1043 259,-36.1043 259,-36.1043 259,-41.1043 254.5,-36.1044 259,-46.1043 259,-46.1043"/>
</g>
<!-- User -->
<g id="node3" class="node"><title>User</title>
<ellipse fill="none" stroke="black" cx="259" cy="-183" rx="27.0966" ry="18"/>
<text text-anchor="middle" x="259" y="-179.3" font-family="Times,serif" font-size="14.00">User</text>
</g>
<!-- User&#45;&gt;Order -->
<g id="edge2" class="edge"><title>User&#45;&gt;Order</title>
<path fill="none" stroke="#792713" d="M259,-156.729C259,-144.725 259,-130.362 259,-118.129"/>
<ellipse fill="none" stroke="#792713" cx="259" cy="-160.884" rx="4" ry="4"/>
<polygon fill="#792713" stroke="#792713" points="259,-118.04 263.5,-108.04 259,-113.04 259,-108.04 259,-108.04 259,-108.04 259,-113.04 254.5,-108.04 259,-118.04 259,-118.04"/>
</g>
</g>
</svg>
