<?xml version="1.0" encoding="UTF-8" standalone="no"?>
<!DOCTYPE svg PUBLIC "-//W3C//DTD SVG 1.1//EN"
 "http://www.w3.org/Graphics/SVG/1.1/DTD/svg11.dtd">
<!-- Generated by graphviz version 2.38.0 (20140413.2041)
 -->
<!-- Title: models_diagram Pages: 1 -->
<svg width="440pt" height="465pt"
 viewBox="0.00 0.00 440.00 465.00" xmlns="http://www.w3.org/2000/svg" xmlns:xlink="http://www.w3.org/1999/xlink">
<g id="graph0" class="graph" transform="scale(1 1) rotate(0) translate(4 461)">
<title>models_diagram</title>
<polygon fill="none" stroke="none" points="-4,4 -4,-461 436,-461 436,4 -4,4"/>
<!-- _diagram_info -->
<g id="node1" class="node"><title>_diagram_info</title>
<text text-anchor="start" x="8" y="-368.1" font-family="Times,serif" font-size="13.00">Models diagram</text>
<text text-anchor="start" x="8" y="-354.1" font-family="Times,serif" font-size="13.00">Date: Jan 24 2016 &#45; 21:01</text>
<text text-anchor="start" x="8" y="-340.1" font-family="Times,serif" font-size="13.00">Migration version: 20160124155732</text>
<text text-anchor="start" x="8" y="-326.1" font-family="Times,serif" font-size="13.00">Generated by RailRoady 1.4.2</text>
<text text-anchor="start" x="8" y="-312.1" font-family="Times,serif" font-size="13.00">http://railroady.prestonlee.com</text>
</g>
<!-- Order -->
<g id="node2" class="node"><title>Order</title>
<path fill="none" stroke="black" d="M278.5,-72.5C278.5,-72.5 385.5,-72.5 385.5,-72.5 391.5,-72.5 397.5,-78.5 397.5,-84.5 397.5,-84.5 397.5,-181.5 397.5,-181.5 397.5,-187.5 391.5,-193.5 385.5,-193.5 385.5,-193.5 278.5,-193.5 278.5,-193.5 272.5,-193.5 266.5,-187.5 266.5,-181.5 266.5,-181.5 266.5,-84.5 266.5,-84.5 266.5,-78.5 272.5,-72.5 278.5,-72.5"/>
<text text-anchor="middle" x="332" y="-178.3" font-family="Times,serif" font-size="14.00">Order</text>
<polyline fill="none" stroke="black" points="266.5,-170.5 397.5,-170.5 "/>
<text text-anchor="start" x="274.5" y="-155.3" font-family="Times,serif" font-size="14.00">id :INTEGER</text>
<text text-anchor="start" x="274.5" y="-140.3" font-family="Times,serif" font-size="14.00">user_id :integer</text>
<text text-anchor="start" x="274.5" y="-125.3" font-family="Times,serif" font-size="14.00">status :varchar</text>
<text text-anchor="start" x="274.5" y="-110.3" font-family="Times,serif" font-size="14.00">price :decimal</text>
<text text-anchor="start" x="274.5" y="-95.3" font-family="Times,serif" font-size="14.00">created_at :datetime</text>
<text text-anchor="start" x="274.5" y="-80.3" font-family="Times,serif" font-size="14.00">updated_at :datetime</text>
</g>
<!-- Product -->
<g id="node4" class="node"><title>Product</title>
<ellipse fill="none" stroke="black" cx="332" cy="-18" rx="38.1938" ry="18"/>
<text text-anchor="middle" x="332" y="-14.3" font-family="Times,serif" font-size="14.00">Product</text>
</g>
<!-- Order&#45;&gt;Product -->
<g id="edge1" class="edge"><title>Order&#45;&gt;Product</title>
<path fill="none" stroke="#642365" d="M332,-62.1332C332,-56.6339 332,-51.3139 332,-46.3982"/>
<polygon fill="#642365" stroke="#642365" points="332,-62.1911 327.5,-72.1911 332,-67.1911 332,-72.1911 332,-72.1911 332,-72.1911 332,-67.1911 336.5,-72.1912 332,-62.1911 332,-62.1911"/>
<polygon fill="#642365" stroke="#642365" points="332,-46.37 336.5,-36.37 332,-41.37 332,-36.37 332,-36.37 332,-36.37 332,-41.37 327.5,-36.3701 332,-46.37 332,-46.37"/>
</g>
<!-- User -->
<g id="node3" class="node"><title>User</title>
<path fill="none" stroke="black" d="M244,-230.5C244,-230.5 420,-230.5 420,-230.5 426,-230.5 432,-236.5 432,-242.5 432,-242.5 432,-444.5 432,-444.5 432,-450.5 426,-456.5 420,-456.5 420,-456.5 244,-456.5 244,-456.5 238,-456.5 232,-450.5 232,-444.5 232,-444.5 232,-242.5 232,-242.5 232,-236.5 238,-230.5 244,-230.5"/>
<text text-anchor="middle" x="332" y="-441.3" font-family="Times,serif" font-size="14.00">User</text>
<polyline fill="none" stroke="black" points="232,-433.5 432,-433.5 "/>
<text text-anchor="start" x="240" y="-418.3" font-family="Times,serif" font-size="14.00">id :INTEGER</text>
<text text-anchor="start" x="240" y="-403.3" font-family="Times,serif" font-size="14.00">email :varchar</text>
<text text-anchor="start" x="240" y="-388.3" font-family="Times,serif" font-size="14.00">encrypted_password :varchar</text>
<text text-anchor="start" x="240" y="-373.3" font-family="Times,serif" font-size="14.00">reset_password_token :varchar</text>
<text text-anchor="start" x="240" y="-358.3" font-family="Times,serif" font-size="14.00">reset_password_sent_at :datetime</text>
<text text-anchor="start" x="240" y="-343.3" font-family="Times,serif" font-size="14.00">remember_created_at :datetime</text>
<text text-anchor="start" x="240" y="-328.3" font-family="Times,serif" font-size="14.00">sign_in_count :integer</text>
<text text-anchor="start" x="240" y="-313.3" font-family="Times,serif" font-size="14.00">current_sign_in_at :datetime</text>
<text text-anchor="start" x="240" y="-298.3" font-family="Times,serif" font-size="14.00">last_sign_in_at :datetime</text>
<text text-anchor="start" x="240" y="-283.3" font-family="Times,serif" font-size="14.00">current_sign_in_ip :varchar</text>
<text text-anchor="start" x="240" y="-268.3" font-family="Times,serif" font-size="14.00">last_sign_in_ip :varchar</text>
<text text-anchor="start" x="240" y="-253.3" font-family="Times,serif" font-size="14.00">created_at :datetime</text>
<text text-anchor="start" x="240" y="-238.3" font-family="Times,serif" font-size="14.00">updated_at :datetime</text>
</g>
<!-- User&#45;&gt;Order -->
<g id="edge2" class="edge"><title>User&#45;&gt;Order</title>
<path fill="none" stroke="#cd8264" d="M332,-222.06C332,-215.945 332,-209.907 332,-204.031"/>
<ellipse fill="none" stroke="#cd8264" cx="332" cy="-226.316" rx="4" ry="4"/>
<polygon fill="#cd8264" stroke="#cd8264" points="332,-203.651 336.5,-193.651 332,-198.651 332,-193.651 332,-193.651 332,-193.651 332,-198.651 327.5,-193.651 332,-203.651 332,-203.651"/>
</g>
</g>
</svg>
