<?xml version="1.0" encoding="UTF-8" standalone="no"?>
<!DOCTYPE svg PUBLIC "-//W3C//DTD SVG 1.1//EN"
 "http://www.w3.org/Graphics/SVG/1.1/DTD/svg11.dtd">
<!-- Generated by graphviz version 2.38.0 (20140413.2041)
 -->
<!-- Title: models_diagram Pages: 1 -->
<svg width="813pt" height="757pt"
 viewBox="0.00 0.00 812.79 757.00" xmlns="http://www.w3.org/2000/svg" xmlns:xlink="http://www.w3.org/1999/xlink">
<g id="graph0" class="graph" transform="scale(1 1) rotate(0) translate(4 753)">
<title>models_diagram</title>
<polygon fill="none" stroke="none" points="-4,4 -4,-753 808.791,-753 808.791,4 -4,4"/>
<!-- _diagram_info -->
<g id="node1" class="node"><title>_diagram_info</title>
<text text-anchor="start" x="410.791" y="-734.6" font-family="Times,serif" font-size="13.00">Models diagram</text>
<text text-anchor="start" x="410.791" y="-720.6" font-family="Times,serif" font-size="13.00">Date: Feb 02 2016 &#45; 23:04</text>
<text text-anchor="start" x="410.791" y="-706.6" font-family="Times,serif" font-size="13.00">Migration version: 20160202131929</text>
<text text-anchor="start" x="410.791" y="-692.6" font-family="Times,serif" font-size="13.00">Generated by RailRoady 1.4.2</text>
<text text-anchor="start" x="410.791" y="-678.6" font-family="Times,serif" font-size="13.00">http://railroady.prestonlee.com</text>
</g>
<!-- Order -->
<g id="node2" class="node"><title>Order</title>
<path fill="none" stroke="black" d="M474.291,-144.5C474.291,-144.5 605.291,-144.5 605.291,-144.5 611.291,-144.5 617.291,-150.5 617.291,-156.5 617.291,-156.5 617.291,-268.5 617.291,-268.5 617.291,-274.5 611.291,-280.5 605.291,-280.5 605.291,-280.5 474.291,-280.5 474.291,-280.5 468.291,-280.5 462.291,-274.5 462.291,-268.5 462.291,-268.5 462.291,-156.5 462.291,-156.5 462.291,-150.5 468.291,-144.5 474.291,-144.5"/>
<text text-anchor="middle" x="539.791" y="-265.3" font-family="Times,serif" font-size="14.00">Order</text>
<polyline fill="none" stroke="black" points="462.291,-257.5 617.291,-257.5 "/>
<text text-anchor="start" x="470.291" y="-242.3" font-family="Times,serif" font-size="14.00">id :INTEGER</text>
<text text-anchor="start" x="470.291" y="-227.3" font-family="Times,serif" font-size="14.00">user_id :integer</text>
<text text-anchor="start" x="470.291" y="-212.3" font-family="Times,serif" font-size="14.00">status :varchar</text>
<text text-anchor="start" x="470.291" y="-197.3" font-family="Times,serif" font-size="14.00">fixed_price :decimal(8,2)</text>
<text text-anchor="start" x="470.291" y="-182.3" font-family="Times,serif" font-size="14.00">created_at :datetime</text>
<text text-anchor="start" x="470.291" y="-167.3" font-family="Times,serif" font-size="14.00">updated_at :datetime</text>
<text text-anchor="start" x="470.291" y="-152.3" font-family="Times,serif" font-size="14.00">comment :text</text>
</g>
<!-- LineItem -->
<g id="node8" class="node"><title>LineItem</title>
<path fill="none" stroke="black" d="M474.291,-0.5C474.291,-0.5 605.291,-0.5 605.291,-0.5 611.291,-0.5 617.291,-6.5 617.291,-12.5 617.291,-12.5 617.291,-94.5 617.291,-94.5 617.291,-100.5 611.291,-106.5 605.291,-106.5 605.291,-106.5 474.291,-106.5 474.291,-106.5 468.291,-106.5 462.291,-100.5 462.291,-94.5 462.291,-94.5 462.291,-12.5 462.291,-12.5 462.291,-6.5 468.291,-0.5 474.291,-0.5"/>
<text text-anchor="middle" x="539.791" y="-91.3" font-family="Times,serif" font-size="14.00">LineItem</text>
<polyline fill="none" stroke="black" points="462.291,-83.5 617.291,-83.5 "/>
<text text-anchor="start" x="470.291" y="-68.3" font-family="Times,serif" font-size="14.00">id :INTEGER</text>
<text text-anchor="start" x="470.291" y="-53.3" font-family="Times,serif" font-size="14.00">order_id :integer</text>
<text text-anchor="start" x="470.291" y="-38.3" font-family="Times,serif" font-size="14.00">product_id :integer</text>
<text text-anchor="start" x="470.291" y="-23.3" font-family="Times,serif" font-size="14.00">amount :integer</text>
<text text-anchor="start" x="470.291" y="-8.3" font-family="Times,serif" font-size="14.00">fixed_price :decimal(8,2)</text>
</g>
<!-- Order&#45;&gt;LineItem -->
<g id="edge1" class="edge"><title>Order&#45;&gt;LineItem</title>
<path fill="none" stroke="#8a13d9" d="M539.791,-136.404C539.791,-129.787 539.791,-123.137 539.791,-116.643"/>
<ellipse fill="none" stroke="#8a13d9" cx="539.791" cy="-140.462" rx="4" ry="4"/>
<polygon fill="#8a13d9" stroke="#8a13d9" points="539.791,-116.595 544.291,-106.595 539.791,-111.595 539.791,-106.595 539.791,-106.595 539.791,-106.595 539.791,-111.595 535.291,-106.595 539.791,-116.595 539.791,-116.595"/>
</g>
<!-- CategoriesProductsJoin -->
<g id="node3" class="node"><title>CategoriesProductsJoin</title>
<path fill="none" stroke="black" d="M672.791,-15.5C672.791,-15.5 792.791,-15.5 792.791,-15.5 798.791,-15.5 804.791,-21.5 804.791,-27.5 804.791,-27.5 804.791,-79.5 804.791,-79.5 804.791,-85.5 798.791,-91.5 792.791,-91.5 792.791,-91.5 672.791,-91.5 672.791,-91.5 666.791,-91.5 660.791,-85.5 660.791,-79.5 660.791,-79.5 660.791,-27.5 660.791,-27.5 660.791,-21.5 666.791,-15.5 672.791,-15.5"/>
<text text-anchor="middle" x="732.791" y="-76.3" font-family="Times,serif" font-size="14.00">CategoriesProductsJoin</text>
<polyline fill="none" stroke="black" points="660.791,-68.5 804.791,-68.5 "/>
<text text-anchor="start" x="668.791" y="-53.3" font-family="Times,serif" font-size="14.00">id :INTEGER</text>
<text text-anchor="start" x="668.791" y="-38.3" font-family="Times,serif" font-size="14.00">product_id :integer</text>
<text text-anchor="start" x="668.791" y="-23.3" font-family="Times,serif" font-size="14.00">category_id :integer</text>
</g>
<!-- User -->
<g id="node4" class="node"><title>User</title>
<path fill="none" stroke="black" d="M172.791,-332.5C172.791,-332.5 348.791,-332.5 348.791,-332.5 354.791,-332.5 360.791,-338.5 360.791,-344.5 360.791,-344.5 360.791,-621.5 360.791,-621.5 360.791,-627.5 354.791,-633.5 348.791,-633.5 348.791,-633.5 172.791,-633.5 172.791,-633.5 166.791,-633.5 160.791,-627.5 160.791,-621.5 160.791,-621.5 160.791,-344.5 160.791,-344.5 160.791,-338.5 166.791,-332.5 172.791,-332.5"/>
<text text-anchor="middle" x="260.791" y="-618.3" font-family="Times,serif" font-size="14.00">User</text>
<polyline fill="none" stroke="black" points="160.791,-610.5 360.791,-610.5 "/>
<text text-anchor="start" x="168.791" y="-595.3" font-family="Times,serif" font-size="14.00">id :INTEGER</text>
<text text-anchor="start" x="168.791" y="-580.3" font-family="Times,serif" font-size="14.00">email :varchar</text>
<text text-anchor="start" x="168.791" y="-565.3" font-family="Times,serif" font-size="14.00">phone :varchar</text>
<text text-anchor="start" x="168.791" y="-550.3" font-family="Times,serif" font-size="14.00">role :varchar</text>
<text text-anchor="start" x="168.791" y="-535.3" font-family="Times,serif" font-size="14.00">provider :varchar</text>
<text text-anchor="start" x="168.791" y="-520.3" font-family="Times,serif" font-size="14.00">uid :varchar</text>
<text text-anchor="start" x="168.791" y="-505.3" font-family="Times,serif" font-size="14.00">encrypted_password :varchar</text>
<text text-anchor="start" x="168.791" y="-490.3" font-family="Times,serif" font-size="14.00">reset_password_token :varchar</text>
<text text-anchor="start" x="168.791" y="-475.3" font-family="Times,serif" font-size="14.00">reset_password_sent_at :datetime</text>
<text text-anchor="start" x="168.791" y="-460.3" font-family="Times,serif" font-size="14.00">remember_created_at :datetime</text>
<text text-anchor="start" x="168.791" y="-445.3" font-family="Times,serif" font-size="14.00">sign_in_count :integer</text>
<text text-anchor="start" x="168.791" y="-430.3" font-family="Times,serif" font-size="14.00">current_sign_in_at :datetime</text>
<text text-anchor="start" x="168.791" y="-415.3" font-family="Times,serif" font-size="14.00">last_sign_in_at :datetime</text>
<text text-anchor="start" x="168.791" y="-400.3" font-family="Times,serif" font-size="14.00">current_sign_in_ip :varchar</text>
<text text-anchor="start" x="168.791" y="-385.3" font-family="Times,serif" font-size="14.00">last_sign_in_ip :varchar</text>
<text text-anchor="start" x="168.791" y="-370.3" font-family="Times,serif" font-size="14.00">tokens :text</text>
<text text-anchor="start" x="168.791" y="-355.3" font-family="Times,serif" font-size="14.00">created_at :datetime</text>
<text text-anchor="start" x="168.791" y="-340.3" font-family="Times,serif" font-size="14.00">updated_at :datetime</text>
</g>
<!-- User&#45;&gt;Order -->
<g id="edge2" class="edge"><title>User&#45;&gt;Order</title>
<path fill="none" stroke="#f08930" d="M367.075,-379.716C398.859,-349.128 433.085,-316.19 462.619,-287.768"/>
<ellipse fill="none" stroke="#f08930" cx="364.005" cy="-382.671" rx="4.00002" ry="4.00002"/>
<polygon fill="#f08930" stroke="#f08930" points="462.817,-287.577 473.143,-283.885 466.42,-284.11 470.023,-280.643 470.023,-280.643 470.023,-280.643 466.42,-284.11 466.902,-277.401 462.817,-287.577 462.817,-287.577"/>
</g>
<!-- ActsAsTaggableOn::Tagging -->
<g id="node9" class="node"><title>ActsAsTaggableOn::Tagging</title>
<ellipse fill="none" stroke="black" cx="329.791" cy="-212.5" rx="114.28" ry="18"/>
<text text-anchor="middle" x="329.791" y="-208.8" font-family="Times,serif" font-size="14.00">ActsAsTaggableOn::Tagging</text>
</g>
<!-- User&#45;&gt;ActsAsTaggableOn::Tagging -->
<g id="edge3" class="edge"><title>User&#45;&gt;ActsAsTaggableOn::Tagging</title>
<path fill="none" stroke="#0c02f0" d="M254.883,-324.272C256.651,-315.623 258.922,-307.145 261.791,-299 270.13,-275.326 288.021,-253.279 303.358,-237.504"/>
<ellipse fill="none" stroke="#0c02f0" cx="254.13" cy="-328.325" rx="4.00001" ry="4.00001"/>
<polygon fill="#0c02f0" stroke="#0c02f0" points="303.534,-237.33 313.8,-233.477 307.082,-233.807 310.63,-230.284 310.63,-230.284 310.63,-230.284 307.082,-233.807 307.459,-227.09 303.534,-237.33 303.534,-237.33"/>
<text text-anchor="middle" x="284.791" y="-302.8" font-family="Times,serif" font-size="14.00">taggings</text>
</g>
<!-- User&#45;&gt;ActsAsTaggableOn::Tagging -->
<g id="edge5" class="edge"><title>User&#45;&gt;ActsAsTaggableOn::Tagging</title>
<path fill="none" stroke="#6b35fc" d="M305.131,-324.551C306.036,-321.004 306.924,-317.483 307.791,-314 313.968,-289.205 320.112,-260.737 324.33,-240.444"/>
<ellipse fill="none" stroke="#6b35fc" cx="304.121" cy="-328.48" rx="4.00001" ry="4.00001"/>
<polygon fill="#6b35fc" stroke="#6b35fc" points="324.332,-240.435 330.758,-231.549 325.342,-235.537 326.351,-230.64 326.351,-230.64 326.351,-230.64 325.342,-235.537 321.944,-229.732 324.332,-240.435 324.332,-240.435"/>
<text text-anchor="middle" x="355.791" y="-302.8" font-family="Times,serif" font-size="14.00">ability_taggings</text>
</g>
<!-- ActsAsTaggableOn::Tag -->
<g id="node10" class="node"><title>ActsAsTaggableOn::Tag</title>
<ellipse fill="none" stroke="black" cx="98.7912" cy="-212.5" rx="98.5829" ry="18"/>
<text text-anchor="middle" x="98.7912" y="-208.8" font-family="Times,serif" font-size="14.00">ActsAsTaggableOn::Tag</text>
</g>
<!-- User&#45;&gt;ActsAsTaggableOn::Tag -->
<g id="edge4" class="edge"><title>User&#45;&gt;ActsAsTaggableOn::Tag</title>
<path fill="none" stroke="#bc1c1b" d="M154.084,-376.57C138.891,-357.031 124.989,-335.851 114.791,-314 103.974,-290.823 100.275,-261.721 99.1018,-240.807"/>
<polygon fill="#bc1c1b" stroke="#bc1c1b" points="154.206,-376.723 156.909,-387.351 157.319,-380.636 160.431,-384.549 160.431,-384.549 160.431,-384.549 157.319,-380.636 163.953,-381.748 154.206,-376.723 154.206,-376.723"/>
<polygon fill="#bc1c1b" stroke="#bc1c1b" points="99.0969,-240.683 103.191,-230.51 98.8957,-235.687 98.6945,-230.691 98.6945,-230.691 98.6945,-230.691 98.8957,-235.687 94.1982,-230.872 99.0969,-240.683 99.0969,-240.683"/>
<text text-anchor="middle" x="141.291" y="-302.8" font-family="Times,serif" font-size="14.00">base_tags</text>
</g>
<!-- User&#45;&gt;ActsAsTaggableOn::Tag -->
<g id="edge6" class="edge"><title>User&#45;&gt;ActsAsTaggableOn::Tag</title>
<path fill="none" stroke="#82544f" d="M182.864,-323.445C177.932,-315.08 172.895,-306.882 167.791,-299 153.715,-277.26 135.16,-254.528 120.837,-237.973"/>
<polygon fill="#82544f" stroke="#82544f" points="182.938,-323.572 184.074,-334.479 185.451,-327.895 187.964,-332.217 187.964,-332.217 187.964,-332.217 185.451,-327.895 191.854,-329.956 182.938,-323.572 182.938,-323.572"/>
<polygon fill="#82544f" stroke="#82544f" points="120.77,-237.898 117.569,-227.41 117.477,-234.136 114.183,-230.374 114.183,-230.374 114.183,-230.374 117.477,-234.136 110.798,-233.338 120.77,-237.898 120.77,-237.898"/>
<text text-anchor="middle" x="198.291" y="-302.8" font-family="Times,serif" font-size="14.00">abilities</text>
</g>
<!-- Product -->
<g id="node5" class="node"><title>Product</title>
<path fill="none" stroke="black" d="M607.291,-377.5C607.291,-377.5 758.291,-377.5 758.291,-377.5 764.291,-377.5 770.291,-383.5 770.291,-389.5 770.291,-389.5 770.291,-576.5 770.291,-576.5 770.291,-582.5 764.291,-588.5 758.291,-588.5 758.291,-588.5 607.291,-588.5 607.291,-588.5 601.291,-588.5 595.291,-582.5 595.291,-576.5 595.291,-576.5 595.291,-389.5 595.291,-389.5 595.291,-383.5 601.291,-377.5 607.291,-377.5"/>
<text text-anchor="middle" x="682.791" y="-573.3" font-family="Times,serif" font-size="14.00">Product</text>
<polyline fill="none" stroke="black" points="595.291,-565.5 770.291,-565.5 "/>
<text text-anchor="start" x="603.291" y="-550.3" font-family="Times,serif" font-size="14.00">id :INTEGER</text>
<text text-anchor="start" x="603.291" y="-535.3" font-family="Times,serif" font-size="14.00">title :varchar</text>
<text text-anchor="start" x="603.291" y="-520.3" font-family="Times,serif" font-size="14.00">price :decimal(8,2)</text>
<text text-anchor="start" x="603.291" y="-505.3" font-family="Times,serif" font-size="14.00">created_at :datetime</text>
<text text-anchor="start" x="603.291" y="-490.3" font-family="Times,serif" font-size="14.00">updated_at :datetime</text>
<text text-anchor="start" x="603.291" y="-475.3" font-family="Times,serif" font-size="14.00">image_file_name :varchar</text>
<text text-anchor="start" x="603.291" y="-460.3" font-family="Times,serif" font-size="14.00">image_content_type :varchar</text>
<text text-anchor="start" x="603.291" y="-445.3" font-family="Times,serif" font-size="14.00">image_file_size :integer</text>
<text text-anchor="start" x="603.291" y="-430.3" font-family="Times,serif" font-size="14.00">image_updated_at :datetime</text>
<text text-anchor="start" x="603.291" y="-415.3" font-family="Times,serif" font-size="14.00">inventory_count :integer</text>
<text text-anchor="start" x="603.291" y="-400.3" font-family="Times,serif" font-size="14.00">city_id :integer</text>
<text text-anchor="start" x="603.291" y="-385.3" font-family="Times,serif" font-size="14.00">image :varchar</text>
</g>
<!-- Product&#45;&gt;Order -->
<g id="edge9" class="edge"><title>Product&#45;&gt;Order</title>
<path fill="none" stroke="#cc64c2" d="M622.189,-368.212C608.034,-341.634 593.295,-313.961 580.263,-289.491"/>
<polygon fill="#cc64c2" stroke="#cc64c2" points="622.393,-368.596 623.122,-379.537 624.744,-373.009 627.094,-377.422 627.094,-377.422 627.094,-377.422 624.744,-373.009 631.066,-375.307 622.393,-368.596 622.393,-368.596"/>
<polygon fill="#cc64c2" stroke="#cc64c2" points="580.244,-289.455 579.515,-278.513 577.894,-285.042 575.543,-280.629 575.543,-280.629 575.543,-280.629 577.894,-285.042 571.571,-282.744 580.244,-289.455 580.244,-289.455"/>
</g>
<!-- Product&#45;&gt;CategoriesProductsJoin -->
<g id="edge7" class="edge"><title>Product&#45;&gt;CategoriesProductsJoin</title>
<path fill="none" stroke="#cc12cc" d="M719.979,-369.279C727.77,-340.789 734.822,-310.034 738.791,-281 747.038,-220.672 740.829,-204.855 738.791,-144 738.334,-130.357 737.487,-115.564 736.57,-102.007"/>
<ellipse fill="none" stroke="#cc12cc" cx="718.835" cy="-373.397" rx="4.00001" ry="4.00001"/>
<polygon fill="#cc12cc" stroke="#cc12cc" points="736.562,-101.897 740.349,-91.6055 736.211,-96.909 735.861,-91.9213 735.861,-91.9213 735.861,-91.9213 736.211,-96.909 731.372,-92.2371 736.562,-101.897 736.562,-101.897"/>
</g>
<!-- Category -->
<g id="node7" class="node"><title>Category</title>
<path fill="none" stroke="black" d="M647.291,-182C647.291,-182 718.291,-182 718.291,-182 724.291,-182 730.291,-188 730.291,-194 730.291,-194 730.291,-231 730.291,-231 730.291,-237 724.291,-243 718.291,-243 718.291,-243 647.291,-243 647.291,-243 641.291,-243 635.291,-237 635.291,-231 635.291,-231 635.291,-194 635.291,-194 635.291,-188 641.291,-182 647.291,-182"/>
<text text-anchor="middle" x="682.791" y="-227.8" font-family="Times,serif" font-size="14.00">Category</text>
<polyline fill="none" stroke="black" points="635.291,-220 730.291,-220 "/>
<text text-anchor="start" x="643.291" y="-204.8" font-family="Times,serif" font-size="14.00">id :INTEGER</text>
<text text-anchor="start" x="643.291" y="-189.8" font-family="Times,serif" font-size="14.00">name :varchar</text>
</g>
<!-- Product&#45;&gt;Category -->
<g id="edge8" class="edge"><title>Product&#45;&gt;Category</title>
<path fill="none" stroke="#56b837" d="M682.791,-367.164C682.791,-326.478 682.791,-283.361 682.791,-253.19"/>
<polygon fill="#56b837" stroke="#56b837" points="682.791,-367.422 678.291,-377.422 682.791,-372.422 682.791,-377.422 682.791,-377.422 682.791,-377.422 682.791,-372.422 687.291,-377.422 682.791,-367.422 682.791,-367.422"/>
<polygon fill="#56b837" stroke="#56b837" points="682.791,-253.083 687.291,-243.083 682.791,-248.083 682.791,-243.083 682.791,-243.083 682.791,-243.083 682.791,-248.083 678.291,-243.083 682.791,-253.083 682.791,-253.083"/>
</g>
<!-- City -->
<g id="node6" class="node"><title>City</title>
<path fill="none" stroke="black" d="M647.291,-679.5C647.291,-679.5 718.291,-679.5 718.291,-679.5 724.291,-679.5 730.291,-685.5 730.291,-691.5 730.291,-691.5 730.291,-728.5 730.291,-728.5 730.291,-734.5 724.291,-740.5 718.291,-740.5 718.291,-740.5 647.291,-740.5 647.291,-740.5 641.291,-740.5 635.291,-734.5 635.291,-728.5 635.291,-728.5 635.291,-691.5 635.291,-691.5 635.291,-685.5 641.291,-679.5 647.291,-679.5"/>
<text text-anchor="middle" x="682.791" y="-725.3" font-family="Times,serif" font-size="14.00">City</text>
<polyline fill="none" stroke="black" points="635.291,-717.5 730.291,-717.5 "/>
<text text-anchor="start" x="643.291" y="-702.3" font-family="Times,serif" font-size="14.00">id :INTEGER</text>
<text text-anchor="start" x="643.291" y="-687.3" font-family="Times,serif" font-size="14.00">name :varchar</text>
</g>
<!-- City&#45;&gt;Product -->
<g id="edge10" class="edge"><title>City&#45;&gt;Product</title>
<path fill="none" stroke="#681151" d="M682.791,-671.088C682.791,-650.909 682.791,-624.903 682.791,-598.736"/>
<ellipse fill="none" stroke="#681151" cx="682.791" cy="-675.122" rx="4" ry="4"/>
<polygon fill="#681151" stroke="#681151" points="682.791,-598.711 687.291,-588.711 682.791,-593.711 682.791,-588.711 682.791,-588.711 682.791,-588.711 682.791,-593.711 678.291,-588.711 682.791,-598.711 682.791,-598.711"/>
</g>
<!-- Category&#45;&gt;CategoriesProductsJoin -->
<g id="edge11" class="edge"><title>Category&#45;&gt;CategoriesProductsJoin</title>
<path fill="none" stroke="#ea6fbb" d="M694.682,-174.164C701.631,-152.343 710.465,-124.604 717.878,-101.329"/>
<ellipse fill="none" stroke="#ea6fbb" cx="693.41" cy="-178.158" rx="4.00001" ry="4.00001"/>
<polygon fill="#ea6fbb" stroke="#ea6fbb" points="717.923,-101.186 725.246,-93.0227 719.44,-96.4213 720.958,-91.6571 720.958,-91.6571 720.958,-91.6571 719.44,-96.4213 716.67,-90.2915 717.923,-101.186 717.923,-101.186"/>
</g>
</g>
</svg>
